
<svg data-logo="logo" xmlns="http://www.w3.org/2000/svg" viewBox="0 0 278 43.4">
  <linearGradient id="gradient" x2="1" y2="1">
    <stop offset="0%" stop-color="#49c8ff" />
    <stop offset="100%" stop-color="#bd34fe" />
  </linearGradient>
  <g id="logogram" transform="translate(0, 1.1999999999999993) rotate(0) "><path transform="translate(-24)" d="M31.3536 0.0799581L69.9128 38.6391V0.0799561H59.478V12.2538L47.3041 0.0799561L31.3536 0.0799581Z" fill="url(#gradient)"/><path d="M0.150879 1.41904V40.0798H10.5857V27.9058L22.7595 40.0798H38.8117L0.150879 1.41904Z" fill="#757575"/></g>
  <g id="logotype" transform="translate(48, 1.4999999999999993)"><path fill="#757575" d="M24.06 40.39Q18.52 40.39 13.90 37.82Q9.28 35.24 6.56 30.62Q3.85 26 3.85 20.23L3.85 20.23Q3.85 14.46 6.56 9.87Q9.28 5.28 13.90 2.70Q18.52 0.13 24.06 0.13L24.06 0.13Q29.61 0.13 34.23 2.70Q38.85 5.28 41.51 9.87Q44.17 14.46 44.17 20.23L44.17 20.23Q44.17 26 41.48 30.62Q38.79 35.24 34.20 37.82Q29.61 40.39 24.06 40.39L24.06 40.39ZM24.06 31.66Q28.77 31.66 31.60 28.52Q34.42 25.38 34.42 20.23L34.42 20.23Q34.42 15.02 31.60 11.92Q28.77 8.81 24.06 8.81L24.06 8.81Q19.30 8.81 16.48 11.89Q13.65 14.97 13.65 20.23L13.65 20.23Q13.65 25.44 16.48 28.55Q19.30 31.66 24.06 31.66L24.06 31.66ZM64.22 0.69Q70.43 0.69 75.08 3.15Q79.73 5.62 82.28 10.07Q84.82 14.52 84.82 20.34L84.82 20.34Q84.82 26.11 82.28 30.59Q79.73 35.07 75.05 37.54Q70.38 40 64.22 40L64.22 40L49.49 40L49.49 0.69L64.22 0.69ZM63.60 31.71Q69.03 31.71 72.06 28.74Q75.08 25.78 75.08 20.34L75.08 20.34Q75.08 14.91 72.06 11.89Q69.03 8.86 63.60 8.86L63.60 8.86L59.06 8.86L59.06 31.71L63.60 31.71ZM114.28 8.36L99.78 8.36L99.78 16.31L112.60 16.31L112.60 23.70L99.78 23.70L99.78 32.33L114.28 32.33L114.28 40L90.20 40L90.20 0.69L114.28 0.69L114.28 8.36ZM150.46 13.34Q150.46 16.76 148.89 19.59Q147.32 22.42 144.07 24.15Q140.82 25.89 136.01 25.89L136.01 25.89L130.07 25.89L130.07 40L120.50 40L120.50 0.69L136.01 0.69Q140.71 0.69 143.96 2.31Q147.21 3.94 148.83 6.79Q150.46 9.65 150.46 13.34L150.46 13.34ZM135.28 18.27Q138.02 18.27 139.37 16.98Q140.71 15.70 140.71 13.34L140.71 13.34Q140.71 10.99 139.37 9.70Q138.02 8.42 135.28 8.42L135.28 8.42L130.07 8.42L130.07 18.27L135.28 18.27ZM174.03 40.39Q168.49 40.39 163.87 37.82Q159.25 35.24 156.53 30.62Q153.82 26 153.82 20.23L153.82 20.23Q153.82 14.46 156.53 9.87Q159.25 5.28 163.87 2.70Q168.49 0.13 174.03 0.13L174.03 0.13Q179.58 0.13 184.20 2.70Q188.82 5.28 191.48 9.87Q194.14 14.46 194.14 20.23L194.14 20.23Q194.14 26 191.45 30.62Q188.76 35.24 184.17 37.82Q179.58 40.39 174.03 40.39L174.03 40.39ZM174.03 31.66Q178.74 31.66 181.56 28.52Q184.39 25.38 184.39 20.23L184.39 20.23Q184.39 15.02 181.56 11.92Q178.74 8.81 174.03 8.81L174.03 8.81Q169.27 8.81 166.44 11.89Q163.62 14.97 163.62 20.23L163.62 20.23Q163.62 25.44 166.44 28.55Q169.27 31.66 174.03 31.66L174.03 31.66ZM229.42 13.34Q229.42 16.76 227.85 19.59Q226.28 22.42 223.03 24.15Q219.78 25.89 214.97 25.89L214.97 25.89L209.03 25.89L209.03 40L199.46 40L199.46 0.69L214.97 0.69Q219.67 0.69 222.92 2.31Q226.17 3.94 227.79 6.79Q229.42 9.65 229.42 13.34L229.42 13.34ZM214.24 18.27Q216.98 18.27 218.33 16.98Q219.67 15.70 219.67 13.34L219.67 13.34Q219.67 10.99 218.33 9.70Q216.98 8.42 214.24 8.42L214.24 8.42L209.03 8.42L209.03 18.27L214.24 18.27Z"/></g>
</svg>
    